<svg xmlns="http://www.w3.org/2000/svg" xmlns:xlink="http://www.w3.org/1999/xlink" width="160" height="160" viewBox="0 0 160 160">
  <defs>
    <clipPath id="clip-customer-4">
      <rect width="160" height="160"/>
    </clipPath>
  </defs>
  <g id="customer-4" clip-path="url(#clip-customer-4)">
    <g id="圖層_2" transform="translate(25.1 21.8)">
      <g id="Group_197" data-name="Group 197" transform="translate(10.9 13.2)">
        <path id="Path_73" data-name="Path 73" d="M54.818,13.2C19.074,13.348,11,42.79,11,67.554s19.841,35.6,43.818,35.646c23.977-.049,43.818-10.881,43.818-35.646S90.562,13.348,54.818,13.2Z" transform="translate(-10.951 -13.2)" fill="#e9edf0"/>
        <path id="Path_74" data-name="Path 74" d="M56.189,93.058C80.658,83.309,93.558,61.843,98.678,51.11,95.182,31.367,84.154,13.3,56.189,13.2,28.224,13.3,17.2,31.367,13.7,51.11,18.82,61.843,31.72,83.309,56.189,93.058Z" transform="translate(-12.321 -13.2)" fill="#018a42"/>
        <path id="Path_75" data-name="Path 75" d="M72.891,115.5c-15.509,0-26.242,11.275-26.291,11.275a73.911,73.911,0,0,0,26.291,18.167,74.355,74.355,0,0,0,26.291-18.167C99.133,126.775,88.4,115.5,72.891,115.5Z" transform="translate(-29.023 -65.133)" fill="#fec745"/>
        <g id="Group_192" data-name="Group 192" transform="translate(37.221 14.672)">
          <path id="Path_76" data-name="Path 76" d="M88.223,62.6A1.744,1.744,0,0,1,86.5,60.872V44.723a1.723,1.723,0,0,1,3.446,0V60.872A1.712,1.712,0,0,1,88.223,62.6Z" transform="translate(-86.5 -43)" fill="#002800"/>
        </g>
        <g id="Group_193" data-name="Group 193" transform="translate(47.068 14.672)">
          <path id="Path_77" data-name="Path 77" d="M108.223,62.6a1.744,1.744,0,0,1-1.723-1.723V44.723a1.723,1.723,0,1,1,3.446,0V60.872A1.712,1.712,0,0,1,108.223,62.6Z" transform="translate(-106.5 -43)" fill="#002800"/>
        </g>
        <path id="Path_78" data-name="Path 78" d="M22.519,132.3c5.022-1.28,7.385-8.862,5.268-16.986-2.068-8.074-7.828-13.589-12.85-12.309a6.776,6.776,0,0,0-3.791,2.757c-.148,2.462-.246,4.874-.246,7.287a35.616,35.616,0,0,0,3.446,15.952C16.857,131.713,19.811,132.993,22.519,132.3Z" transform="translate(-10.9 -58.699)" fill="#de8301"/>
        <path id="Path_79" data-name="Path 79" d="M159.268,132.3c-5.022-1.28-7.385-8.862-5.268-16.986,2.068-8.074,7.828-13.589,12.85-12.309a6.776,6.776,0,0,1,3.791,2.757c.148,2.462.246,4.874.246,7.287a35.616,35.616,0,0,1-3.446,15.952C164.93,131.713,161.976,132.993,159.268,132.3Z" transform="translate(-83.152 -58.699)" fill="#de8301"/>
        <g id="Group_194" data-name="Group 194" transform="translate(45.197 31.165)">
          <path id="Path_80" data-name="Path 80" d="M121.212,77.14a5.956,5.956,0,1,1-10.093,4.283,6.046,6.046,0,0,1,1.132-3.5l-9.108.788a8.736,8.736,0,0,0-.443,2.757c0,5.957,6.007,9.8,13.441,9.8s13.441-3.84,13.441-9.8A9.96,9.96,0,0,0,128.2,76.5Z" transform="translate(-102.7 -76.5)" fill="#feffff"/>
          <path id="Path_81" data-name="Path 81" d="M119.7,82.183A5.982,5.982,0,1,0,129.842,77.9l-9.01.788A5.714,5.714,0,0,0,119.7,82.183Z" transform="translate(-111.33 -77.211)" fill="#141414"/>
        </g>
        <g id="Group_195" data-name="Group 195" transform="translate(15.656 31.214)">
          <path id="Path_82" data-name="Path 82" d="M51.07,77.191a6.137,6.137,0,0,0-1.822,4.333,5.957,5.957,0,0,0,11.915,0,6.046,6.046,0,0,0-1.132-3.5l9.108.788a8.736,8.736,0,0,1,.443,2.757c0,5.957-6.007,9.8-13.441,9.8S42.7,87.53,42.7,81.573A9.96,9.96,0,0,1,44.079,76.6Z" transform="translate(-42.7 -76.6)" fill="#feffff"/>
          <path id="Path_83" data-name="Path 83" d="M67.964,82.183A5.982,5.982,0,1,1,57.822,77.9l9.01.788A5.714,5.714,0,0,1,67.964,82.183Z" transform="translate(-49.452 -77.26)" fill="#141414"/>
        </g>
        <g id="Group_196" data-name="Group 196" transform="translate(8.714 24.026)">
          <path id="Path_84" data-name="Path 84" d="M63.753,75.244c-22.057,0-34.612-4.825-35.153-5.022L31.849,62c.1.049,11.668,4.382,31.9,4.382,20.432,0,31.805-4.333,31.9-4.382l3.249,8.271C98.365,70.419,85.81,75.244,63.753,75.244Z" transform="translate(-28.6 -62)" fill="#0b480d"/>
        </g>
      </g>
    </g>
  </g>
</svg>
