<svg xmlns="http://www.w3.org/2000/svg" xmlns:xlink="http://www.w3.org/1999/xlink" width="160" height="160" viewBox="0 0 160 160">
  <defs>
    <clipPath id="clip-path">
      <circle id="Ellipse_92" data-name="Ellipse 92" cx="80" cy="80" r="80" transform="translate(640.5 919)" fill="#f8f8f8"/>
    </clipPath>
    <clipPath id="clip-customer-2">
      <rect width="160" height="160"/>
    </clipPath>
  </defs>
  <g id="customer-2" clip-path="url(#clip-customer-2)">
    <g id="Mask_Group_50" data-name="Mask Group 50" transform="translate(-640.5 -919)" clip-path="url(#clip-path)">
      <g id="Group_198" data-name="Group 198" transform="translate(670.518 953)">
        <g id="Group_194" data-name="Group 194" transform="translate(-0.018 9.076)">
          <g id="Group_193" data-name="Group 193">
            <path id="Path_78" data-name="Path 78" d="M112.137,35.29c10.433,18.388,11.408,29.947,6.68,32.649s-9.232,1.726-18.013-13.51-17.863-39.1-13.135-41.88S103.506,19.979,112.137,35.29Z" transform="translate(-21.532 -12.093)" fill="#f9c157"/>
            <path id="Path_79" data-name="Path 79" d="M9.377,35.321C-1.055,53.709-2.031,65.267,2.7,67.969S11.929,69.7,20.71,54.46s17.863-39.1,13.135-41.805S18.083,20.01,9.377,35.321Z" transform="translate(0.018 -12.124)" fill="#f9c157"/>
          </g>
        </g>
        <path id="Path_80" data-name="Path 80" d="M55.252,0C35.513.225,18.1,17.112,18.1,55.915c0,29.121,17.413,36.326,37.152,36.4,19.739-.075,35.651-7.28,35.651-36.4C90.9,17.112,74.991.225,55.252,0Z" transform="translate(-4.52)" fill="#fcef79"/>
        <ellipse id="Ellipse_91" data-name="Ellipse 91" cx="31.898" cy="23.642" rx="31.898" ry="23.642" transform="translate(18.083 43.156)" fill="#f9c157"/>
        <path id="Path_81" data-name="Path 81" d="M72.613,65.128c0,2.252-4.053,7.13-9.007,7.13S54.6,67.38,54.6,65.128,58.653,61,63.607,61,72.613,62.8,72.613,65.128Z" transform="translate(-13.625 -15.217)" fill="#9e5d2c"/>
        <g id="Group_195" data-name="Group 195" transform="translate(26.868 68.002)">
          <path id="Path_82" data-name="Path 82" d="M47.584,102.084a3.655,3.655,0,0,1-.9-.075c-6.83-.675-10.583-8.856-10.733-9.232a1.478,1.478,0,0,1,2.7-1.2c0,.075,3.227,6.98,8.331,7.505,3.377.3,6.98-2.177,10.733-7.43a1.5,1.5,0,0,1,2.4,0c3.753,5.179,7.355,7.656,10.733,7.355,5.1-.525,8.331-7.43,8.331-7.505a1.451,1.451,0,0,1,1.951-.751,1.515,1.515,0,0,1,.751,1.951c-.15.45-3.9,8.631-10.733,9.307-4.053.375-8.181-1.951-12.234-6.98C55.165,99.683,51.412,102.084,47.584,102.084Z" transform="translate(-35.804 -90.604)" fill="#e54a4a"/>
        </g>
        <path id="Path_83" data-name="Path 83" d="M67.251,91.575a1.456,1.456,0,0,0-1.951,0h1.951Z" transform="translate(-16.294 -22.75)" fill="#e54a4a"/>
        <path id="Path_84" data-name="Path 84" d="M62.484,96.5c-3.753,4.653-7.58,7.055-11.333,7.055a3.654,3.654,0,0,1-.9-.075H50.1c1.726,3.227,6.6,5.554,12.384,5.554s10.658-2.327,12.384-5.554h-.15C70.665,103.93,66.537,101.529,62.484,96.5Z" transform="translate(-12.502 -24.073)" fill="#fc4c4c" stroke="#804e2a" stroke-miterlimit="10" stroke-width="3"/>
        <path id="Path_85" data-name="Path 85" d="M81.234,90.851a1.429,1.429,0,0,0-1.951.751c0,.075-2.777,6-7.28,7.28-.375.075-.675.15-1.051.225-3.3.3-6.9-2.177-10.733-7.355l-.225-.225H58.042l-.225.225c-3.753,5.179-7.355,7.656-10.733,7.355a4.329,4.329,0,0,1-1.051-.225c-4.428-1.276-7.205-7.205-7.28-7.28a1.478,1.478,0,1,0-2.7,1.2c.15.375,3.9,8.406,10.583,9.232h.15c.3,0,.6.075.9.075,3.753,0,7.58-2.327,11.333-7.055,4.053,5.029,8.181,7.355,12.234,6.98h.15c6.68-.826,10.358-8.856,10.508-9.232A1.4,1.4,0,0,0,81.234,90.851Z" transform="translate(-8.961 -22.627)" fill="#804e2a"/>
        <path id="Path_86" data-name="Path 86" d="M99.206,49.883c-2.1,6.23-10.508.375-17.863-3.452-7.806-4.053-12.609-10.583-10.508-16.812s10.658-10.433,17.938-6.6C99.431,28.718,101.308,43.654,99.206,49.883Z" transform="translate(-17.552 -5.376)" fill="#ffd872"/>
        <g id="Group_196" data-name="Group 196" transform="translate(62.247 20.573)">
          <path id="Path_87" data-name="Path 87" d="M94.544,37.685c1.426,6.38,1.126,12.084-1.951,12.759s-7.731-3.978-9.082-10.282c-1.426-6.38-.075-12.009,3-12.684S93.118,31.305,94.544,37.685Z" transform="translate(-82.943 -27.411)" fill="#82522c" stroke="#804e2a" stroke-miterlimit="10" stroke-width="1.04"/>
          <path id="Path_88" data-name="Path 88" d="M93.716,38.933c1.051,4.8.826,9.082-1.426,9.607s-5.779-3-6.83-7.731c-1.051-4.8-.075-9.082,2.252-9.532C89.963,30.677,92.665,34.2,93.716,38.933Z" transform="translate(-83.466 -28.359)" fill="#c15e32"/>
          <path id="Path_89" data-name="Path 89" d="M91.845,42.4c.6,2.7.525,5.179-.675,5.4-1.2.3-3.152-1.726-3.753-4.5-.6-2.7-.075-5.179,1.126-5.4C89.819,37.669,91.245,39.7,91.845,42.4Z" transform="translate(-83.997 -30.022)" fill="#fff"/>
        </g>
        <g id="Group_197" data-name="Group 197" transform="translate(25.369 20.573)">
          <path id="Path_90" data-name="Path 90" d="M34.627,37.685C33.2,44.065,33.5,49.769,36.579,50.444s7.731-3.978,9.082-10.282.075-12.009-3-12.684S35.978,31.305,34.627,37.685Z" transform="translate(-33.807 -27.411)" fill="#82522c" stroke="#804e2a" stroke-miterlimit="10" stroke-width="1.04"/>
          <path id="Path_91" data-name="Path 91" d="M36.5,38.933c-1.051,4.8-.826,9.082,1.426,9.607s5.779-3,6.83-7.731.075-9.082-2.252-9.532C40.252,30.677,37.55,34.2,36.5,38.933Z" transform="translate(-34.327 -28.359)" fill="#c15e32"/>
          <path id="Path_92" data-name="Path 92" d="M39.678,42.4c-.6,2.7-.525,5.179.675,5.4,1.2.3,3.152-1.726,3.753-4.5.6-2.7.075-5.179-1.126-5.4S40.278,39.7,39.678,42.4Z" transform="translate(-35.179 -30.022)" fill="#fff"/>
        </g>
        <path id="Path_93" data-name="Path 93" d="M42.664,4.3C34.183,8.5,27.053,16.834,23,29.818,31.106,24.79,39.287,10.68,42.664,4.3Z" transform="translate(-5.742 -1.073)" fill="#f9c157"/>
      </g>
    </g>
  </g>
</svg>
