<svg id="圖層_1" data-name="圖層 1" xmlns="http://www.w3.org/2000/svg" viewBox="0 0 24 24"><title>icons</title><path d="M9,12a3,3,0,0,0,3,3V9A3,3,0,0,0,9,12Z" style="fill:none"/><path d="M15,12a3,3,0,0,0-3-3v6A3,3,0,0,0,15,12Z" style="fill:none"/><path d="M21.5,13.5v-3l-2.81-.56a7.16,7.16,0,0,0-.5-1.21l1.59-2.39L17.66,4.22,15.27,5.81a7.16,7.16,0,0,0-1.21-.5L13.5,2.5h-3L9.94,5.31a7.16,7.16,0,0,0-1.21.5L6.34,4.22,4.22,6.34,5.81,8.73a7.16,7.16,0,0,0-.5,1.21L2.5,10.5v3l2.81.56a7.16,7.16,0,0,0,.5,1.21L4.22,17.66l2.12,2.12,2.39-1.59a7.16,7.16,0,0,0,1.21.5l.56,2.81h3l.56-2.81a7.16,7.16,0,0,0,1.21-.5l2.39,1.59,2.12-2.12-1.59-2.39a7.16,7.16,0,0,0,.5-1.21ZM12,15a3,3,0,1,1,3-3A3,3,0,0,1,12,15Z" style="fill:none;stroke:#000;stroke-linecap:round;stroke-linejoin:round"/></svg>