<svg xmlns="http://www.w3.org/2000/svg" viewBox="0 0 40 40"><title>icons</title><g id="圖層_3" data-name="圖層 3"><path d="M29.83,18.48c0,.06,0,.12,0,.18,0,4.82-4.41,5.1-9.84,5.1s-9.84-.28-9.84-5.1c0-.06,0-.12,0-.18-3.7,1.31-6.08,3.34-6.08,5.62,0,4,7.12,7.16,15.91,7.16s15.91-3.2,15.91-7.16C35.91,21.82,33.53,19.79,29.83,18.48Z" style="fill:none;stroke:#000;stroke-linecap:round;stroke-linejoin:round"/><path d="M29.83,18.48c-.12-4.76-4.47-9.74-9.83-9.74s-9.71,5-9.83,9.74c0,.06,0,.12,0,.18,0,4.82,4.41,5.1,9.84,5.1s9.84-.28,9.84-5.1C29.84,18.6,29.83,18.54,29.83,18.48Z" style="fill:none;stroke:#000;stroke-linecap:round;stroke-linejoin:round"/><line x1="29.84" y1="18.47" x2="32.32" y2="15.43" style="fill:none;stroke:#000;stroke-linecap:round;stroke-linejoin:round"/><line x1="33.78" y1="17.89" x2="29.84" y2="18.47" style="fill:none;stroke:#000;stroke-linecap:round;stroke-linejoin:round"/><path d="M29.83,18.48A29.76,29.76,0,0,1,20,20" style="fill:none;stroke:#000;stroke-linecap:round;stroke-linejoin:round"/><path d="M10.17,18.48A29.76,29.76,0,0,0,20,20" style="fill:none;stroke:#000;stroke-linecap:round;stroke-linejoin:round"/></g></svg>