<svg xmlns="http://www.w3.org/2000/svg" xmlns:xlink="http://www.w3.org/1999/xlink" width="60" height="60" viewBox="0 0 60 60">
  <defs>
    <clipPath id="clip-path">
      <rect id="Rectangle_170" data-name="Rectangle 170" width="60" height="60" transform="translate(37 373)" fill="#fff" stroke="#707070" stroke-width="1"/>
    </clipPath>
    <clipPath id="clip-icon-accessories">
      <rect width="60" height="60"/>
    </clipPath>
  </defs>
  <g id="icon-accessories" clip-path="url(#clip-icon-accessories)">
    <g id="Mask_Group_52" data-name="Mask Group 52" transform="translate(-37 -373)" clip-path="url(#clip-path)">
      <g id="sunglasses" transform="translate(44 220.442)">
        <g id="Group_194" data-name="Group 194" transform="translate(0 175.558)">
          <path id="Path_80" data-name="Path 80" d="M45.228,178.232c-.95,0-.975.028-1.012-.074a3.786,3.786,0,0,0-3.569-2.525h-6.64a.724.724,0,0,0-.731.657.708.708,0,0,0,.705.757h6.666a2.37,2.37,0,0,1,2.359,2.615l-.474,4.6h0a4.814,4.814,0,0,1-4.8,4.333H31.39a4.814,4.814,0,0,1-4.8-4.333l-.429-4.166a2.771,2.771,0,0,1,2.756-3.053h2.024a.709.709,0,0,0,.526-1.207c-.355-.355-.717-.147-2.55-.207a4.182,4.182,0,0,0-3.822,2.482.2.2,0,0,1-.184.118c-3.869-.048-3.9.11-4-.124-1.387-3.22-4.037-2.475-15.553-2.475a3.786,3.786,0,0,0-3.569,2.525.11.11,0,0,1-.1.074H.772A.772.772,0,0,0,0,179v.158a.771.771,0,0,0,.771.771H1.5c.193,0,.063.059.561,4.476.466,4.535,4.242,5.4,5.9,5.566a.7.7,0,1,0,.132-1.4,4.7,4.7,0,0,1-4.626-4.309l-.447-4.335a2.476,2.476,0,0,1,.571-2.1,2.347,2.347,0,0,1,1.761-.782H17.085a2.768,2.768,0,0,1,2.681,2.076c.169.641.114.6-.353,5.144a4.814,4.814,0,0,1-4.8,4.333H11.042a.7.7,0,0,0-.7.7v.006a.7.7,0,0,0,.7.7H14.61a6.224,6.224,0,0,0,6.209-5.6c.422-4.1.36-3.889.5-3.889h3.369a.106.106,0,0,1,.106.095c.023.227.105,1.017.391,3.794a6.225,6.225,0,0,0,6.209,5.6h6.341a6.224,6.224,0,0,0,6.208-5.6c.5-4.417.368-4.476.561-4.476h.729a.772.772,0,0,0,.772-.772V179A.772.772,0,0,0,45.228,178.232Z" transform="translate(0 -175.558)"/>
        </g>
      </g>
    </g>
  </g>
</svg>
