<svg xmlns="http://www.w3.org/2000/svg" xmlns:xlink="http://www.w3.org/1999/xlink" width="60" height="60" viewBox="0 0 60 60">
  <defs>
    <clipPath id="clip-path">
      <rect id="Rectangle_168" data-name="Rectangle 168" width="60" height="60" transform="translate(1698 922)" fill="#222" stroke="#fff" stroke-width="1"/>
    </clipPath>
    <clipPath id="clip-icon-dress">
      <rect width="60" height="60"/>
    </clipPath>
  </defs>
  <g id="icon-dress" clip-path="url(#clip-icon-dress)">
    <g id="Mask_Group_50" data-name="Mask Group 50" transform="translate(-1698 -922)" clip-path="url(#clip-path)">
      <g id="dress" transform="translate(1710 928)">
        <g id="Group_193" data-name="Group 193" transform="translate(0)">
          <g id="Group_192" data-name="Group 192">
            <path id="Path_73" data-name="Path 73" d="M95.5,40.446a41.221,41.221,0,0,0-3.485-10.821,28.834,28.834,0,0,0-4.541-6.718A20.291,20.291,0,0,0,82.71,19a23.546,23.546,0,0,0,3.828-11.15A4.067,4.067,0,0,0,84.888,4.64V.916a.916.916,0,0,0-1.832,0V3.748a5.437,5.437,0,0,0-1.365-.174,5.022,5.022,0,0,0-4.16,2.081,5.021,5.021,0,0,0-4.16-2.081A5.439,5.439,0,0,0,72,3.749V.916a.916.916,0,0,0-1.832,0V4.644a4.066,4.066,0,0,0-1.645,3.2,23.548,23.548,0,0,0,3.834,11.159,20.314,20.314,0,0,0-4.745,3.9,28.838,28.838,0,0,0-4.541,6.718,41.219,41.219,0,0,0-3.485,10.821,2.64,2.64,0,0,0,1.685,2.962l3.139,1.158q.44.162.883.312l.029.01a37.906,37.906,0,0,0,8.185,1.806.92.92,0,0,0,.135.013,37.885,37.885,0,0,0,17.033-2.141l3.139-1.158A2.64,2.64,0,0,0,95.5,40.446ZM70.356,7.846a2.308,2.308,0,0,1,1.158-1.92.9.9,0,0,0,.092-.056,3.5,3.5,0,0,1,1.765-.464A2.824,2.824,0,0,1,76.38,7.694a1.154,1.154,0,0,0,2.3,0A2.824,2.824,0,0,1,81.69,5.407a3.5,3.5,0,0,1,1.743.451.915.915,0,0,0,.129.079,2.3,2.3,0,0,1,1.142,1.908,22.507,22.507,0,0,1-3.813,10.583l-.137.2a7.4,7.4,0,0,1-2.2.667,8.169,8.169,0,0,0,.579-.87,6.883,6.883,0,0,0,.647-1.5.916.916,0,1,0-1.759-.514,5.723,5.723,0,0,1-1.117,2.011,5.508,5.508,0,0,1-.557.584.913.913,0,0,0-.193.229,7.391,7.391,0,0,1-1.851-.609l-.137-.2A22.507,22.507,0,0,1,70.356,7.846ZM93.178,41.689l-3.139,1.158c-.148.055-.3.106-.447.159A38.868,38.868,0,0,0,85.4,32.186a.916.916,0,1,0-1.555.969,37.772,37.772,0,0,1,3.994,10.424,36.13,36.13,0,0,1-13.265,1.377,11.079,11.079,0,0,1,1.062-4.345.916.916,0,1,0-1.646-.806,12.9,12.9,0,0,0-1.242,4.956,36.065,36.065,0,0,1-6.114-1.366c.454-2.593,2.237-11.264,6.472-16.124a.916.916,0,1,0-1.382-1.2c-4.435,5.089-6.3,13.668-6.848,16.722l-2.975-1.1a.811.811,0,0,1-.517-.91c1.588-8.6,4.95-13.745,7.491-16.542a17.885,17.885,0,0,1,4.812-3.871,9.233,9.233,0,0,0,7.691-.006c1.748.9,9.6,5.7,12.313,20.419A.811.811,0,0,1,93.178,41.689Z" transform="translate(-59.541)" fill="#222"/>
          </g>
        </g>
      </g>
    </g>
  </g>
</svg>
