<svg id="圖層_1" data-name="圖層 1" xmlns="http://www.w3.org/2000/svg" viewBox="0 0 24 24"><title>icons</title><path d="M13,4.23,14.92,8.1a1.14,1.14,0,0,0,.84.62L20,9.34a1.12,1.12,0,0,1,.62,1.91l-3.09,3a1.11,1.11,0,0,0-.33,1L18,19.52a1.12,1.12,0,0,1-1.62,1.18l-3.83-2a1.12,1.12,0,0,0-1,0l-3.83,2A1.12,1.12,0,0,1,6,19.52l.73-4.26a1.11,1.11,0,0,0-.33-1l-3.09-3A1.12,1.12,0,0,1,4,9.34l4.28-.62a1.14,1.14,0,0,0,.84-.62L11,4.23A1.12,1.12,0,0,1,13,4.23Z" style="fill:none;stroke:#000;stroke-linecap:round;stroke-linejoin:round;stroke-width:1.1222202326304558px"/></svg>