<svg xmlns="http://www.w3.org/2000/svg" viewBox="0 0 40 40"><title>icons</title><g id="圖層_3" data-name="圖層 3"><path d="M26.18,8.8H13.82c0,3.09.2,6.19-.46,8.87a46.47,46.47,0,0,1,5.87-.37l.77,0,.77,0a46.47,46.47,0,0,1,5.87.37C26,15,26.18,11.89,26.18,8.8Z" style="fill:none;stroke:#000;stroke-linecap:round;stroke-linejoin:round"/><path d="M26.64,17.67a46.47,46.47,0,0,0-5.87-.37l-.77,0-.77,0a46.47,46.47,0,0,0-5.87.37A21.63,21.63,0,0,1,6,29.44c2.36,2.86,7.39,4.84,13.23,4.84l.77,0,.77,0c5.84,0,10.87-2,13.23-4.84A21.63,21.63,0,0,1,26.64,17.67Z" style="fill:none;stroke:#000;stroke-linecap:round;stroke-linejoin:round"/><line x1="16.91" y1="8.8" x2="16.91" y2="5.72" style="fill:none;stroke:#000;stroke-linecap:round;stroke-linejoin:round"/><line x1="23.09" y1="8.8" x2="23.09" y2="5.72" style="fill:none;stroke:#000;stroke-linecap:round;stroke-linejoin:round"/></g></svg>