<svg id="圖層_3" data-name="圖層 3" xmlns="http://www.w3.org/2000/svg" viewBox="0 0 24 24"><title>icons</title><path d="M16,4.75H8a24.89,24.89,0,0,1-.3,5.74,31.25,31.25,0,0,1,3.8-.24h1a31.25,31.25,0,0,1,3.8.24A24.89,24.89,0,0,1,16,4.75Z" style="fill:none;stroke:#000;stroke-linecap:round;stroke-linejoin:round"/><path d="M16.3,10.49a31.25,31.25,0,0,0-3.8-.24h-1a31.25,31.25,0,0,0-3.8.24,14.07,14.07,0,0,1-4.77,7.63C4.46,20,7.72,21.25,11.5,21.25h1c3.78,0,7-1.28,8.57-3.13A14.07,14.07,0,0,1,16.3,10.49Z" style="fill:none;stroke:#000;stroke-linecap:round;stroke-linejoin:round"/><line x1="10" y1="4.75" x2="10" y2="2.75" style="fill:none;stroke:#000;stroke-linecap:round;stroke-linejoin:round"/><line x1="14" y1="4.75" x2="14" y2="2.75" style="fill:none;stroke:#000;stroke-linecap:round;stroke-linejoin:round"/></svg>