<svg xmlns="http://www.w3.org/2000/svg" xmlns:xlink="http://www.w3.org/1999/xlink" width="60" height="60" viewBox="0 0 60 60">
  <defs>
    <clipPath id="clip-path">
      <rect id="Rectangle_169" data-name="Rectangle 169" width="60" height="60" transform="translate(36 443)" fill="#fff" stroke="#707070" stroke-width="1"/>
    </clipPath>
    <clipPath id="clip-icon-hat">
      <rect width="60" height="60"/>
    </clipPath>
  </defs>
  <g id="icon-hat" clip-path="url(#clip-icon-hat)">
    <g id="Mask_Group_51" data-name="Mask Group 51" transform="translate(-36 -443)" clip-path="url(#clip-path)">
      <g id="pamela-hat" transform="translate(43 362.232)">
        <path id="Path_74" data-name="Path 74" d="M133.964,215.386h1.348v1.348h-1.348Z" transform="translate(-121.928 -108.871)"/>
        <path id="Path_75" data-name="Path 75" d="M226,371.231h1.348v1.348H226Z" transform="translate(-205.695 -250.714)"/>
        <path id="Path_76" data-name="Path 76" d="M256,358.475v1.348a66.873,66.873,0,0,0,13.883-1.289l-.283-1.318A65.541,65.541,0,0,1,256,358.475Z" transform="translate(-233 -237.958)"/>
        <path id="Path_77" data-name="Path 77" d="M318.459,157.385l-.975.93a13.388,13.388,0,0,1,2.833,4.959l1.277-.43A14.735,14.735,0,0,0,318.459,157.385Z" transform="translate(-288.96 -56.081)"/>
        <path id="Path_78" data-name="Path 78" d="M126.952,393.544c.438.068.89.132,1.342.192l.176-1.336c-.442-.058-.884-.121-1.312-.188Z" transform="translate(-115.546 -269.81)"/>
        <path id="Path_79" data-name="Path 79" d="M36.4,112.862a23.97,23.97,0,0,0-.546-4.532l-.232-1.063-.023.018a18.242,18.242,0,0,0-3.97-7.642A11.444,11.444,0,0,0,23,95.768,11,11,0,0,0,16.4,97.9l.792,1.091A9.683,9.683,0,0,1,23,97.116c6.481,0,10.13,5.631,11.44,11.06-1.6.934-5.828,1.812-11.44,1.812a45.663,45.663,0,0,1-6.46-.431,2.686,2.686,0,0,0,.027-.922,2.7,2.7,0,0,0-1.473-4.534,2.685,2.685,0,0,0-1.347-1.229,13.727,13.727,0,0,1,2.467-3.08L15.3,98.8a15.384,15.384,0,0,0-3.011,3.9,2.686,2.686,0,0,0-1.965,1.4,2.7,2.7,0,0,0-1.473,4.534,2.685,2.685,0,0,0,.87,2.387c-.068.618-.109,1.234-.125,1.84-3.822.73-9.6,2.323-9.6,5.28,0,3.087,6.3,4.687,10.06,5.366l.24-1.326c-6.184-1.118-8.952-2.835-8.952-4.04,0-1.175,2.621-2.83,8.458-3.948.5.841,1.845,1.531,4.029,2.058a40.924,40.924,0,0,0,9.165.919,48.837,48.837,0,0,0,5.552-.3l-.154-1.339a47.5,47.5,0,0,1-5.4.293,39.561,39.561,0,0,1-8.849-.881c-2.669-.644-3.215-1.361-3.215-1.518,0-.576.026-1.166.078-1.76a2.684,2.684,0,0,0,1.7-.227,2.7,2.7,0,0,0,3.19-.615,46.125,46.125,0,0,0,7.1.513c5.013,0,9.476-.7,11.724-1.788a22.487,22.487,0,0,1,.339,3.877c0,.1-.219.456-1.22.885a17.933,17.933,0,0,1-4.136,1.046l.2,1.332c2.528-.387,5.469-1.123,6.281-2.494,5.837,1.118,8.459,2.773,8.459,3.948,0,.9-1.585,2.265-6.033,3.409A65.646,65.646,0,0,1,23,123.212a79.841,79.841,0,0,1-8.752-.463l-.148,1.339a81.2,81.2,0,0,0,8.9.471,67.007,67.007,0,0,0,15.955-1.7c3.214-.827,7.045-2.316,7.045-4.714,0-2.956-5.775-4.55-9.6-5.28Zm-20.979-5.015-.4.288.151.466a1.348,1.348,0,0,1-2.074,1.507l-.4-.288-.4.288a1.348,1.348,0,0,1-2.074-1.507l.151-.466-.4-.288a1.348,1.348,0,0,1,.792-2.438h.489l.151-.466a1.348,1.348,0,0,1,2.564,0l.151.466h.49a1.348,1.348,0,0,1,.792,2.438Z" transform="translate(0 0)"/>
      </g>
    </g>
  </g>
</svg>
