<svg xmlns="http://www.w3.org/2000/svg" xmlns:xlink="http://www.w3.org/1999/xlink" width="241" height="281" viewBox="0 0 241 281">
  <defs>
    <clipPath id="clip-path">
      <path id="Path_98" data-name="Path 98" d="M2107.356,5310.363c-.067-.081,3.393-5.719,3.393-5.719l5.622,5.719,5.137-6.2,5.622,6.2,6.3-4.847,1.066,7.561s40.514,9.344,29.227,66.845c-30.88,5.963-43.445,14.908-95.621,0C2066.4,5365.866,2058.229,5317.258,2107.356,5310.363Z" fill="#6c9c29"/>
    </clipPath>
    <clipPath id="clip-island">
      <rect width="241" height="281"/>
    </clipPath>
  </defs>
  <g id="island" clip-path="url(#clip-island)">
    <g id="Group_202" data-name="Group 202" transform="translate(30 30)">
      <g id="Group_199" data-name="Group 199" transform="translate(-1840 -5200)">
        <path id="Path_85" data-name="Path 85" d="M2106.875,5237.127c1.1.049-8.355-26.21,21.46-37.187,0,5.242-4.751,18.184-8.846,24.9,5.242-2.621,9.187-3.671,11.8-3.283-3.1,2.424-12.31,12.8-10.856,26.463,3.1-7.27,32.764-41.1,61.166-12.6-8.433-.775-20.162.194-22.489.969,3.1,1.454,9.015,7.368,9.209,10.469-3.3-.582-17.836-3.1-23.652-2.714,2.231,1.651,5.042,5.625,5.042,6.788-1.26-.291-17.06-3-22.295,4.75,4.459-.291,44.446,2.156,47.092,30.383a38.852,38.852,0,0,1-14.492-9.829c.126,4.033-2.772,11.089-2.772,11.089s-4.789-11.215-11.215-15.122c-.252,3.906-1.008,6.931-2.772,8.695-.63-2.52-2.507-12.6-11.965-13.735s-26.986-2.134-33.538,10.971a10.749,10.749,0,0,1-4.147-7.947c-2.646,3.15-6.3,12.98-13.358,15-.378-4.537-1.008-10.711,0-12.979-3.024,2.394-10.207,9.451-10.585,16.76-2.394-4.285-11.845-31.882,28.983-36.922-6.3-.5-11.651-1.029-15.752-.656,1.64-2.088,7.307-7.175,7.978-7.241-4.7-.066-16.844.307-21.21,2.395.332-2.61,7.863-9.2,9.13-9.412-4.4-.431-20.281-2.519-22.817-3.562S2075.279,5208.22,2106.875,5237.127Z" transform="translate(-170)" fill="#14831a"/>
        <path id="Path_86" data-name="Path 86" d="M2125.676,5264.9s-17.739-7.657-24.427,8.24c1.745,1.745,4.362,2.036,5.719,1.066,1.357,1.938,3.877,7.172,8.433,3.877,0,6.4-.167,24.584-6.228,36.052,6.389,6.061,20.969,1.146,20.969,1.146s-.164-22.029-5.406-41.075c2.621-1.026,6.928-3.055,6.779-6.336S2125.676,5264.9,2125.676,5264.9Z" transform="translate(-170)" fill="#e1bb52"/>
        <path id="Path_87" data-name="Path 87" d="M2107.356,5310.363c-.067-.081,3.393-5.719,3.393-5.719l5.622,5.719,5.137-6.2,5.622,6.2,6.3-4.847,1.066,7.561s40.514,9.344,29.227,66.845c-30.88,5.963-43.445,14.908-95.621,0C2066.4,5365.866,2058.229,5317.258,2107.356,5310.363Z" transform="translate(-170)" fill="#6c9c29"/>
        <path id="Intersection_1" data-name="Intersection 1" d="M8.391,75.763C7.8,70.9,6.439,61.913,6.94,51.944c3.471-1.83,8.715-2.618,14.483,3.435,1.89,1.89,4.159-2.521,6.931-2.647,1.369-.063,2.677,1.167,4.137,2.4,1.494,1.259,3.147,2.518,5.188,2.391,4.032-.252,5.167-4.033,7.939-3.781s4.285,5.671,7.939,5.545,4.537-5.545,7.435-5.545,5.545,4.789,8.317,4.663,4.285-5.167,8.191-4.663,5.419,4.915,8.191,4.663,4.285-6.8,7.435-6.931a7.4,7.4,0,0,1,3.906,1.134,6.792,6.792,0,0,0,3.529,1.134c1.694-.081,2.3-2.535,5.1-4.094a90.067,90.067,0,0,1-1.647,26.117c-18.386,3.55-30.283,8.157-47.91,8.158C44.124,83.921,29.5,81.795,8.391,75.763Z" transform="translate(1889.713 5304.159)" fill="#f0b364"/>
        <g id="Mask_Group_50" data-name="Mask Group 50" transform="translate(-170)" clip-path="url(#clip-path)">
          <g id="Group_198" data-name="Group 198">
            <path id="Path_90" data-name="Path 90" d="M2097.392,5333.2l-6.049,13.736,16.508-4.159Z" fill="#d2d33b"/>
            <path id="Path_91" data-name="Path 91" d="M2124.319,5320.443l-11.729,9.4,17.545,4.168Z" fill="#ced53d"/>
            <path id="Path_92" data-name="Path 92" d="M2136.824,5331.688l1.26,12.892,10.663-8.918Z" fill="#9cca54"/>
            <path id="Path_93" data-name="Path 93" d="M2146.226,5314.627l-8.336,9.306,22.78,1.357Z" fill="#8cc450"/>
            <path id="Path_94" data-name="Path 94" d="M2102.9,5318.02l.485,7.755,9.791-3.586Z" fill="#90c54f"/>
            <path id="Path_95" data-name="Path 95" d="M2070.133,5328.683h15.8l-9.015,10.76Z" fill="#8cc450"/>
            <path id="Path_96" data-name="Path 96" d="M2089.035,5311.525c.194.582,1.066,8.434,1.066,8.434l-14.637,1.648Z" fill="#8cc450"/>
            <path id="Path_97" data-name="Path 97" d="M2092.815,5311.041l11.147,2.617-.775-8.433Z" fill="#8cc450"/>
          </g>
        </g>
      </g>
      <g id="Group_201" data-name="Group 201" transform="translate(-2011 -5200)">
        <path id="Polygon_4" data-name="Polygon 4" d="M8,0l8,8H0Z" transform="translate(2011 5369)" fill="#109ebe"/>
        <path id="Polygon_5" data-name="Polygon 5" d="M8,0l8,8H0Z" transform="translate(2030 5369)" fill="#109ebe"/>
        <path id="Polygon_6" data-name="Polygon 6" d="M8,0l8,8H0Z" transform="translate(2049 5369)" fill="#109ebe"/>
      </g>
      <path id="Path_100" data-name="Path 100" d="M2074.123,5386.888s-10.812,16.054,20.805,16.545c-.983,2.949-1.8,12.123,23.754,11.959s40.057-1.872,42.19-8.27c2.229-3.49-10.275-4.265-10.275-4.265s15.7-7.173,7.367-12.02-40.81-8.53-40.81-8.53Z" transform="translate(-2011 -5200)" fill="#0087b2"/>
      <path id="Path_99" data-name="Path 99" d="M2085.548,5378.068c-2.9,2.394-7.155,5.445-15.22,2.672s-14.4,7.5-1.551,9.015,18.611,2.229,47.207,2.229,56.319-2.229,55.737-6.979-3.487-1.08-8.674-5.677-7.368-3.15-15.559,1.008-15.51-1.729-18.514-3.473-5.495-1.063-12.3,2.465-12.854,2.646-16.256,0S2092.227,5373.532,2085.548,5378.068Z" transform="translate(-2011 -5200)" fill="#a2eaf9"/>
      <g id="Group_200" data-name="Group 200" transform="translate(-2011 -5200)">
        <path id="Polygon_1" data-name="Polygon 1" d="M9.5,0,19,13H0Z" transform="translate(2135 5408)" fill="#13a2cd"/>
        <path id="Polygon_2" data-name="Polygon 2" d="M9.5,0,19,13H0Z" transform="translate(2154 5408)" fill="#13a2cd"/>
        <path id="Polygon_3" data-name="Polygon 3" d="M9.5,0,19,13H0Z" transform="translate(2173 5408)" fill="#13a2cd"/>
      </g>
    </g>
  </g>
</svg>
