<svg xmlns="http://www.w3.org/2000/svg" xmlns:xlink="http://www.w3.org/1999/xlink" width="399" height="276" viewBox="0 0 399 276">
  <defs>
    <linearGradient id="linear-gradient" x1="0.5" x2="0.5" y2="1" gradientUnits="objectBoundingBox">
      <stop offset="0" stop-color="#fbf7d7"/>
      <stop offset="1" stop-color="#fff2df"/>
    </linearGradient>
    <clipPath id="clip-slogan">
      <rect width="399" height="276"/>
    </clipPath>
  </defs>
  <g id="slogan" clip-path="url(#clip-slogan)">
    <g id="Group_181" data-name="Group 181" transform="translate(-100 -219)">
      <g id="Group_154" data-name="Group 154" transform="translate(134 -20)">
        <path id="Path_69" data-name="Path 69" d="M-291.042,588.813c-11.553.629-114.476.314-111.675,108.143s12.6,115.374,37.108,108.458,35.708-6.916,50.412-1.258,30.107,0,40.609-3.458,24.856-1.258,37.809,3.458,34.205,2.264,42.607-5.6C-186.965,791.069-127.555,589.128-291.042,588.813Z" transform="translate(522.774 -329.813)" fill="#88c9a1" stroke="#88c9a1" stroke-width="20"/>
        <path id="Path_68" data-name="Path 68" d="M-291.042,588.813c-11.553.629-114.476.314-111.675,108.143s12.6,115.374,37.108,108.458,35.708-6.916,50.412-1.258,30.107,0,40.609-3.458,24.856-1.258,37.809,3.458,34.205,2.264,42.607-5.6C-186.965,791.069-127.555,589.128-291.042,588.813Z" transform="translate(522.774 -329.813)" fill="#88c9a1" stroke="#fff" stroke-width="10"/>
        <path id="Path_32" data-name="Path 32" d="M-291.042,588.813c-11.553.629-114.476.314-111.675,108.143s12.6,115.374,37.108,108.458,35.708-6.916,50.412-1.258,30.107,0,40.609-3.458,24.856-1.258,37.809,3.458,34.205,2.264,42.607-5.6C-186.965,791.069-127.555,589.128-291.042,588.813Z" transform="translate(522.774 -329.813)" fill="#88c9a1"/>
        <path id="Path_72" data-name="Path 72" d="M-6.062-32.437q2.375.75,2.375,2.625a5.267,5.267,0,0,1-.125.875A2.368,2.368,0,0,1-6.25-26.812,4.616,4.616,0,0,1-7.437-27,47.337,47.337,0,0,1-21-33.906,46.641,46.641,0,0,1-31.187-44.062,57.8,57.8,0,0,1-42.312-33.594a61.511,61.511,0,0,1-14,7.719,5.045,5.045,0,0,1-1.5.313,2.236,2.236,0,0,1-2.312-1.625,2.678,2.678,0,0,1-.187-.937,2.679,2.679,0,0,1,2-2.5,57.513,57.513,0,0,0,22.438-15.25h-11.75q-3,0-3-2.437t3-2.437h13.313a8.02,8.02,0,0,1,3.031.5,5.588,5.588,0,0,1,2.219,1.75,47.906,47.906,0,0,0,9.844,9.563A50.006,50.006,0,0,0-6.062-32.437ZM-9.187-1.062q3.062,0,3.063,2.5,0,2.375-3.062,2.375H-54.812q-3.063,0-3.062-2.437t3.063-2.437H-34.75v-9.875H-48.312q-3.063,0-3.062-2.437t3.063-2.437H-34.75v-8.562H-48.125q-2.875,0-2.875-2.25Q-51-29-48.125-29h32.438q2.875,0,2.875,2.375a2.037,2.037,0,0,1-.687,1.719,3.593,3.593,0,0,1-2.187.531h-14v8.563h14.063q3,0,3,2.438t-3,2.438H-29.687v9.875ZM54.125-43.187a5.807,5.807,0,0,1,4.219,1.281,4.751,4.751,0,0,1,1.031,3.969v5.063q0,2.625-2.375,2.625-2.313,0-2.312-2.625v-3.75A1.906,1.906,0,0,0,52.5-38.75H36.313a1.922,1.922,0,0,0-2.125,2.063v3.5q0,2.5-2.25,2.5a2.114,2.114,0,0,1-1.656-.594,2.816,2.816,0,0,1-.531-1.906V-37.75a2.52,2.52,0,0,1-2.125.813q-.875,0-2.187-1.5a82.34,82.34,0,0,0-6.687-6.125h-.187A43.409,43.409,0,0,1,13.5-37.875l10.375-.062q2.375,0,2.375,1.938t-2.375,1.938h-9.5q-2.437,0-2.5-2h-.062Q7.125-31.375,5.75-31.375q-2.188,0-2.187-2.625a3.268,3.268,0,0,1,1.375-2.375A46.715,46.715,0,0,0,15.875-49.312a3.033,3.033,0,0,1,2.563-1.875q2.75,0,2.75,2l-.562,1.25.813.563q7.313,5,8.5,7.25.812-3.062,4.75-3.062h6.875v-4.687q0-2.812,2.5-2.812t2.5,2.813v4.688ZM52.75-12.875a5.672,5.672,0,0,1,4.063,1.219A4.928,4.928,0,0,1,57.938-7.75v6.688a5.57,5.57,0,0,1-1.219,4A5.027,5.027,0,0,1,52.75,4.063H38.875q-5,0-5-5V-28.75q0-4.75,4.625-4.75H50.25a5.293,5.293,0,0,1,3.781,1.125A4.5,4.5,0,0,1,55-28.687v6.5a5.5,5.5,0,0,1-1.094,3.844q-1.094,1.156-3.656.969H38.375v4.5ZM26.375-1.812q2.187,0,2.188,2a1.861,1.861,0,0,1-.531,1.469,2.457,2.457,0,0,1-1.656.469H12.688v1.5q0,2.562-2.312,2.563a2.2,2.2,0,0,1-1.719-.656,2.75,2.75,0,0,1-.594-1.906V-26.687a4.607,4.607,0,0,1,1.344-3.594A5.429,5.429,0,0,1,13.188-31.5H23.25A5.311,5.311,0,0,1,27-30.281a4.667,4.667,0,0,1,1.313,3.594v9.375q0,4.75-5.062,4.75H12.688V-9h13.5Q28.25-9,28.25-7.062a1.8,1.8,0,0,1-2.062,2h-13.5v3.25Zm12-19.812h9.938a1.713,1.713,0,0,0,1.938-1.937v-3.75q0-1.812-1.937-1.937H40.375a1.786,1.786,0,0,0-2,1.875ZM12.688-24H23.625v-2.125q0-1.562-1.812-1.625h-7.25q-1.875,0-1.875,1.625Zm0,7.625h9.125q1.812,0,1.813-1.625v-2.25H12.688ZM53.125-6.687a1.893,1.893,0,0,0-.469-1.437,2.32,2.32,0,0,0-1.469-.5H38.375V-2.25q0,1.938,2.125,2.063H51.188a1.713,1.713,0,0,0,1.938-1.937Zm-113.672,24.8q0,1.318-2.588,8.3V58.295q0,2.295-1.953,2.295-1.855,0-1.855-2.295V36.078A31.647,31.647,0,0,1-69.116,40.4q-.952,1.489-1.538,1.489A1.757,1.757,0,0,1-71.9,41.5a1.343,1.343,0,0,1-.415-1.025,3.5,3.5,0,0,1,.342-1.367q.342-.781,1.172-2.295a58.794,58.794,0,0,0,3.613-8.789,69.689,69.689,0,0,0,2.734-9.766q.391-2.051,1.953-2.051A1.705,1.705,0,0,1-60.547,18.109Zm12.3,4.98.537-2h-9.961a1.906,1.906,0,0,1-1.318-.366,1.506,1.506,0,0,1-.391-1.147q0-1.465,1.709-1.465h26.9q1.709,0,1.709,1.465a1.506,1.506,0,0,1-.391,1.147,1.906,1.906,0,0,1-1.318.366H-43.945l-.977,2h8.057q3.906,0,3.906,3.711v8.74h1.025q3.418,0,3.418,3.418v2.1a1.972,1.972,0,0,1-.439,1.367,1.62,1.62,0,0,1-1.27.488q-1.66,0-1.66-1.855V39.545q0-1.367-1.465-1.416H-56.641a1.38,1.38,0,0,0-1.05.342,1.716,1.716,0,0,0-.366,1.074v1.611q0,1.855-1.66,1.855-1.611,0-1.611-1.855v-2.1q0-3.516,3.467-3.516h1.074V26.8q0-3.711,3.857-3.711ZM-36.768,26.8q0-1.123-1.172-1.123H-51.807a1.248,1.248,0,0,0-.9.269,1.169,1.169,0,0,0-.269.854v.586h16.211Zm0,4.639v-1.9H-52.979v1.9Zm0,4.1V33.588H-52.979v1.953Zm-8.4,2.881a4.5,4.5,0,0,1,2,.879q1.074.635,1.074,1.367a1.208,1.208,0,0,1-1.367,1.367,6.553,6.553,0,0,1-1.807-.977,4.866,4.866,0,0,1-1-.781q-.366-.391-.366-.586Q-46.631,38.422-45.166,38.422Zm14.7,18.359q2.783.1,2.783,1.758,0,1.9-2.051,1.9a34.42,34.42,0,0,1-7.422-.928,34.02,34.02,0,0,1-7.324-2.49q-8.643,3.564-14.99,3.564-1.855,0-1.855-1.709,0-1.465,3.223-1.66a49.711,49.711,0,0,0,10.5-2.148A16.562,16.562,0,0,1-52,50.824q-4.883,3.516-6.885,3.516-1.416,0-1.416-1.514,0-.928,2.246-1.855A21.632,21.632,0,0,0-50.1,45.453a2.147,2.147,0,0,1-1.66-.635,2.351,2.351,0,0,1-.586-1.66v-2.93a1.446,1.446,0,0,1,1.66-1.611,1.424,1.424,0,0,1,1.611,1.611v1.953a.777.777,0,0,0,.879.879h5.078a5.588,5.588,0,0,0,2.2-.244q.342-.2.488-1.123.146-1.318,1.318-1.318a1.487,1.487,0,0,1,1.172.439,1.774,1.774,0,0,1,.391,1.221q0,2.783-2.148,3.223a43.434,43.434,0,0,1-6.689.293L-48,47.357h12.744q2.49,0,2.49,1.611,0,.732-2.588,2.832a35.02,35.02,0,0,1-5.127,3.418A39.1,39.1,0,0,0-30.469,56.781Zm-5.273-18.066q.928,0,2.441,2.344a9.49,9.49,0,0,1,1.465,2.979,1.363,1.363,0,0,1-.439,1.074A1.774,1.774,0,0,1-33.5,45.5q-.928,0-1.758-1.709l-1.807-3.467a1.754,1.754,0,0,1,.269-1.245A1.324,1.324,0,0,1-35.742,38.715Zm-20.85,1.953a4.649,4.649,0,0,1,.659-1.147,1.02,1.02,0,0,1,.806-.366q1.416,0,1.416,1.221a6.782,6.782,0,0,1-.537,1.758q-.049.2-.391,1.221A7.287,7.287,0,0,1-55.713,45.5a1.614,1.614,0,0,1-1.221.732,1.317,1.317,0,0,1-1.514-1.465,6.026,6.026,0,0,1,1.025-2.051Zm7.373,9.277a20.815,20.815,0,0,0,5.127,3.809q1.807-.879,3.76-2.051,2-1.221,2-1.514,0-.244-.342-.244ZM20.166,19.574q1.855,0,1.855,1.611T20.166,22.8H1.514v2.393H14.063a4.458,4.458,0,0,1,3.247,1,4.107,4.107,0,0,1,.9,3.2v6.2a4.643,4.643,0,0,1-1,3.3,3.916,3.916,0,0,1-3.149.952H1.416v2.93l10.01-.1q-1.074-.83-1.074-1.318,0-1.367,1.709-1.367.928,0,5.029,2.686,4.053,2.637,4.053,3.662a1.652,1.652,0,0,1-.464,1.294,2.114,2.114,0,0,1-1.44.415q-.586,0-3.76-2.49l-.391-.293-.635.049-25.049.83-8.691.2q-2.2.049-2.2-1.66,0-1.855,3.027-1.855H-2.393V39.838h-11.67a4.557,4.557,0,0,1-3.32-1.025,4,4,0,0,1-.879-3.223v-6.2a4.706,4.706,0,0,1,.977-3.32,3.927,3.927,0,0,1,3.223-.879h11.67V22.8H-20.117a2.1,2.1,0,0,1-1.416-.391,1.553,1.553,0,0,1-.439-1.221q0-1.611,1.855-1.611H-2.393V17.816q0-1.709,1.9-1.709,2,0,2,1.709v1.758ZM-2.393,28.168H-12.6q-1.563,0-1.66,1.709v1.27H-2.393Zm16.65,1.709a1.545,1.545,0,0,0-1.66-1.709H1.416v2.979H14.258Zm-16.65,3.906H-14.258V35.15a1.494,1.494,0,0,0,1.66,1.66H-2.393Zm16.65,0H1.416v3.027H12.6q1.563,0,1.66-1.66ZM2.051,53.021q-.781,0-2.051-1.465l-1.855-2.1a1.944,1.944,0,0,1-.488-1.27q0-1.611,1.9-1.611.781,0,2.637,1.709,1.9,1.758,1.9,2.783Q4.1,53.021,2.051,53.021Zm7.422-2.1q2.148,0,2.148,2.344,0,4.834-3.32,5.762a33.347,33.347,0,0,1-8.252.684q-7.227,0-8.74-.781a2.907,2.907,0,0,1-1.66-2.588v-6.4q0-2.393,2-2.393t2,2.393v4.59q0,1.416,4.834,1.416a45.6,45.6,0,0,0,7.178-.293q1.367-.391,1.66-2.881A1.9,1.9,0,0,1,9.473,50.922Zm5.371-2.783q1.074,0,3.955,3.613,2.783,3.564,2.783,4.785,0,2-2.148,2-.977,0-2.979-2.832l-2.637-3.955q-.391-.586-.684-1.1a1.8,1.8,0,0,1-.293-.757Q12.842,48.139,14.844,48.139Zm-31.348.146q2.051,0,2.051,1.855,0,1.416-2.441,6.689-1.172,2.539-2.49,2.539-2.148,0-2.148-1.66,0-.879,1.758-4.248a19.354,19.354,0,0,0,1.416-3.613A1.884,1.884,0,0,1-16.5,48.285ZM64.99,24.994q5.615-.342,5.322,5.371V41.254a5.891,5.891,0,0,1-1.27,4.2q-1.27,1.318-4.053,1.123H52.148V58.393q0,2.393-2.148,2.393t-2.148-2.393V46.576H35.5q-5.615.342-5.322-5.322V30.365a6.05,6.05,0,0,1,1.245-4.248Q32.666,24.8,35.5,24.994H47.852V18.6q0-2.441,2.148-2.441T52.148,18.6v6.4ZM47.852,42.67V28.9H37.207a3.2,3.2,0,0,0-2.222.562,3.3,3.3,0,0,0-.562,2.271v8.154a3.2,3.2,0,0,0,.562,2.222,3.2,3.2,0,0,0,2.222.562ZM66.016,31.732a3.3,3.3,0,0,0-.562-2.271,3.205,3.205,0,0,0-2.222-.562H52.148V42.67H63.232a3.2,3.2,0,0,0,2.222-.562,3.2,3.2,0,0,0,.562-2.222Z" transform="translate(233 364)" fill="#fff"/>
      </g>
      <g id="Group_179" data-name="Group 179" transform="translate(-259 5)">
        <path id="Path_67" data-name="Path 67" d="M-159.346,143.768h-7.284l20.142-18.57h-10.856l30.967-29.48c.12-.177.231-.359.353-.534-.762.075-1.533.121-2.322.121-11.419,0-22.713-10.636-22.713-21.642s10.436-19.93,21.857-19.93,21,11.494,21,22.5a20.137,20.137,0,0,1-.2,2.69c.746-.445,1.5-.879,2.27-1.294a62.2,62.2,0,0,1,10.125-4.364,62.637,62.637,0,0,1,8.146-2.089q2.78-.518,5.629-.783t5.743-.268c1.013,0,2.013.033,3.007.089.28.017.554.048.831.069.717.052,1.431.108,2.135.189.3.035.582.081.876.121.687.091,1.371.187,2.048.3l.067.012a21.694,21.694,0,0,1-1.2-7.08c0-11.2,8.384-20.275,18.723-20.275s18.725,9.078,18.725,20.275c0,8.524-4.862,15.807-11.743,18.805a58.467,58.467,0,0,1,16.8,24.761h0v0q.567,1.605,1.04,3.24l.033.106c.025.091.054.181.079.274l10.717,12.892-8.644-.735c.023.388.056.775.071,1.163.015.368.008.723.014,1.086L-6.63,150.912l-19.081-9.436c-.1.241-.212.474-.318.714l11.9,25.438-19.5-9.215,7.07,14.572-11.571-4.715,9,14.358-12.43-7.5v16.285L-70.1,170.305c-5.749,9.344-15.82,25.608-15.82,25.608l-3.128-24.25L-107.774,203.2l-3.284-17-15.429,17s5.142-20.285,5.284-20.713-23.143,15-23.143,15l13.857-23.286-20.142,14.572,5.572-10.287-4.285,2,2.856-12.287-13.286,10.142,5-11.429-11.857,4.145,10.142-9.714-3.144-.715,12.715-12.142-12,4.856,1.714-4.428-9.429,2.571Z" transform="translate(545.63 266.444)" fill="#fff" stroke="#88c9a1" stroke-linecap="round" stroke-linejoin="round" stroke-width="20"/>
        <path id="Path_66" data-name="Path 66" d="M-159.346,143.768h-7.284l20.142-18.57h-10.856l30.967-29.48c.12-.177.231-.359.353-.534-.762.075-1.533.121-2.322.121-11.419,0-22.713-10.636-22.713-21.642s10.436-19.93,21.857-19.93,21,11.494,21,22.5a20.137,20.137,0,0,1-.2,2.69c.746-.445,1.5-.879,2.27-1.294a62.2,62.2,0,0,1,10.125-4.364,62.637,62.637,0,0,1,8.146-2.089q2.78-.518,5.629-.783t5.743-.268c1.013,0,2.013.033,3.007.089.28.017.554.048.831.069.717.052,1.431.108,2.135.189.3.035.582.081.876.121.687.091,1.371.187,2.048.3l.067.012a21.694,21.694,0,0,1-1.2-7.08c0-11.2,8.384-20.275,18.723-20.275s18.725,9.078,18.725,20.275c0,8.524-4.862,15.807-11.743,18.805a58.467,58.467,0,0,1,16.8,24.761h0v0q.567,1.605,1.04,3.24l.033.106c.025.091.054.181.079.274l10.717,12.892-8.644-.735c.023.388.056.775.071,1.163.015.368.008.723.014,1.086L-6.63,150.912l-19.081-9.436c-.1.241-.212.474-.318.714l11.9,25.438-19.5-9.215,7.07,14.572-11.571-4.715,9,14.358-12.43-7.5v16.285L-70.1,170.305c-5.749,9.344-15.82,25.608-15.82,25.608l-3.128-24.25L-107.774,203.2l-3.284-17-15.429,17s5.142-20.285,5.284-20.713-23.143,15-23.143,15l13.857-23.286-20.142,14.572,5.572-10.287-4.285,2,2.856-12.287-13.286,10.142,5-11.429-11.857,4.145,10.142-9.714-3.144-.715,12.715-12.142-12,4.856,1.714-4.428-9.429,2.571Z" transform="translate(545.63 266.444)" fill="#fff" stroke="#fff" stroke-linecap="round" stroke-linejoin="round" stroke-width="10"/>
        <g id="Group_177" data-name="Group 177" transform="translate(379 310)">
          <path id="Path_51" data-name="Path 51" d="M111.222,68.763c0,11.006,11.294,21.643,22.713,21.643s20.144-8.065,20.144-19.072-9.579-22.5-21-22.5S111.222,57.757,111.222,68.763Z" transform="translate(-95.651 -38.655)" fill="#734349"/>
          <path id="Path_52" data-name="Path 52" d="M113.611,66.194c0,8.144,10.943,17.037,19.394,17.037S145.327,78.3,145.327,70.16s-7.888-18.216-16.339-18.216S113.611,58.05,113.611,66.194Z" transform="translate(-91.505 -35.766)" fill="#cbc19c"/>
          <ellipse id="Ellipse_47" data-name="Ellipse 47" cx="18.723" cy="20.277" rx="18.723" ry="20.277" transform="translate(97.911)" fill="#734349"/>
          <path id="Path_53" data-name="Path 53" d="M74.185,60.757c0,7.6,2.887,15.571,9.928,15.571s14.858-8.681,14.858-16.285S94.084,47.185,87.043,47.185,74.185,53.154,74.185,60.757Z" transform="translate(30.887 -40.185)" fill="#cbc19c"/>
          <path id="Path_54" data-name="Path 54" d="M82.92,103.148" transform="translate(30.092 11.782)" fill="#734349"/>
          <path id="Path_55" data-name="Path 55" d="M110.63,111.148" transform="translate(-51.06 19.21)" fill="#734349"/>
          <path id="Path_56" data-name="Path 56" d="M65.84,120.349H58.556L78.7,101.778H67.84l32.715-31.143,83.93-1.857,26.356,31.714-10.071-.856,17.785,27.857-19.928-9.857,12.43,26.572-19.5-9.215,7.072,14.572-11.572-4.715,9,14.358-12.43-7.5v16.285L155.09,146.886c-5.749,9.344-15.82,25.608-15.82,25.608l-3.128-24.25-18.729,31.534-3.286-17-15.429,17s5.144-20.285,5.286-20.713-23.143,15-23.143,15L94.7,150.778,74.556,165.35l5.572-10.287-4.287,2L78.7,144.778,65.412,154.921l5-11.429-11.857,4.145L68.7,137.922l-3.144-.715L78.27,125.064l-12,4.856,1.713-4.428-9.427,2.571Z" transform="translate(-58.556 -20.134)" fill="#734349"/>
          <path id="Path_57" data-name="Path 57" d="M66.98,109.727c0,29.291,26.755,44.68,57.644,44.68s55.358-13.589,54.215-42.859c-1.072-27.428-22.684-54.215-53.572-54.215S66.98,80.436,66.98,109.727Z" transform="translate(-33.124 -29.762)" fill="url(#linear-gradient)"/>
          <path id="Path_58" data-name="Path 58" d="M82.92,109.727c0-29.291,27.4-52.394,58.286-52.394a50.415,50.415,0,0,1,22.869,5.412c-5.157,1.541-10.04,6.193-8.154,19.089a121.938,121.938,0,0,0-8.858-9L143.921,84.4s-6.565-17.722-26.858-13-20.43,41.143-7.572,52.143c0,0-18.634,2.274-10.979,18.266A39.259,39.259,0,0,1,82.92,109.727Z" transform="translate(-51.064 -30.762)" fill="#734349"/>
          <path id="Path_59" data-name="Path 59" d="M67.409,76.659a58.235,58.235,0,0,1,3.039,13.489l-3.315.455C67.9,88.547,67.779,82.591,67.409,76.659Z" transform="translate(75.01 -11.816)" fill="#734349"/>
          <path id="Path_60" data-name="Path 60" d="M72.791,103.122c.92,5.786,7.215,9.714,18.929,6.713,7.624-1.952,11.635-6.428,10.713-12.214s-7.871-8.38-15.643-7.144S71.869,97.336,72.791,103.122Z" transform="translate(30.138 -0.264)"/>
          <ellipse id="Ellipse_48" data-name="Ellipse 48" cx="2.464" cy="2.309" rx="2.464" ry="2.309" transform="matrix(-0.821, -0.571, 0.571, -0.821, 122.916, 82.45)" fill="#af677b"/>
          <ellipse id="Ellipse_49" data-name="Ellipse 49" cx="2.464" cy="2.309" rx="2.464" ry="2.309" transform="matrix(-0.821, -0.571, 0.571, -0.821, 113.716, 76.479)" fill="#af677b"/>
          <ellipse id="Ellipse_50" data-name="Ellipse 50" cx="2.539" cy="2.379" rx="2.539" ry="2.379" transform="matrix(-0.821, -0.571, 0.571, -0.821, 96.445, 80.059)" fill="#af677b"/>
          <ellipse id="Ellipse_51" data-name="Ellipse 51" cx="2.671" cy="2.503" rx="2.671" ry="2.503" transform="matrix(-0.821, -0.571, 0.571, -0.821, 106.837, 83.004)" fill="#af677b"/>
          <ellipse id="Ellipse_52" data-name="Ellipse 52" cx="2.671" cy="2.503" rx="2.671" ry="2.503" transform="matrix(-0.821, -0.571, 0.571, -0.821, 89.621, 88.617)" fill="#af677b"/>
          <path id="Path_61" data-name="Path 61" d="M96.815,87.443c0,11.3,4.393,19.982,13.822,19.982,7.811,0,15.035-3.643,15.035-18.036,0-10.563-5.969-21.5-13.78-21.5S96.815,76.88,96.815,87.443Z" transform="translate(-39.459 -20.96)" fill="#fff"/>
          <path id="Path_62" data-name="Path 62" d="M75.128,86.128c4.636,9.616,11.471,15.9,16.5,13.107,4.571-2.536,3.849-10.777-.787-20.393S77.537,62.8,73.261,64.865,70.491,76.51,75.128,86.128Z" transform="translate(41.801 -24.126)" fill="#fff"/>
          <path id="Path_63" data-name="Path 63" d="M112.343,67.889c6.06,0,10.995,6.586,12.912,14.468-6.532-.725-18.875-.212-27.446,11.506a36.519,36.519,0,0,1-.544-6.42C97.265,76.88,104.532,67.889,112.343,67.889Z" transform="translate(-39.909 -20.96)" fill="#c36d4e"/>
          <path id="Path_64" data-name="Path 64" d="M74.219,64.865C78.495,62.8,87.164,69.225,91.8,78.841a50.163,50.163,0,0,1,2.012,4.766c-4.062-3.543-12.227-8.866-20.206-3.483C71.081,72.809,70.844,66.493,74.219,64.865Z" transform="translate(40.843 -24.126)" fill="#c36d4e"/>
          <ellipse id="Ellipse_53" data-name="Ellipse 53" cx="8.428" cy="8.926" rx="8.428" ry="8.926" transform="translate(66.359 67.715)" fill="#070500"/>
          <ellipse id="Ellipse_54" data-name="Ellipse 54" cx="8.797" cy="5.196" rx="8.797" ry="5.196" transform="translate(126.944 77.34) rotate(-115.32)" fill="#070500"/>
          <path id="Path_65" data-name="Path 65" d="M84.5,90.478c7.772-1.236,14.723,1.358,15.643,7.144a8.924,8.924,0,0,1-.939,5.82c.023-2.806-.507-6.156-2.918-7.82-4.5-3.107-5.786-.856-12.322,0-3.007.393-7.388.764-11.253,1.02A20.108,20.108,0,0,1,84.5,90.478Z" transform="translate(32.429 -0.264)" fill="#4b3e3b"/>
          <path id="Path_70" data-name="Path 70" d="M96.815,87.443c0,11.3,4.393,19.982,13.822,19.982,7.811,0,15.035-3.643,15.035-18.036,0-10.563-5.969-21.5-13.78-21.5S96.815,76.88,96.815,87.443Z" transform="translate(-39.459 -20.96)" fill="none" stroke="#afa8a5" stroke-width="1"/>
          <path id="Path_71" data-name="Path 71" d="M75.128,86.128c4.636,9.616,11.471,15.9,16.5,13.107,4.571-2.536,3.849-10.777-.787-20.393S77.537,62.8,73.261,64.865,70.491,76.51,75.128,86.128Z" transform="translate(41.801 -24.126)" fill="none" stroke="#afa8a5" stroke-width="1"/>
        </g>
      </g>
    </g>
  </g>
</svg>
